<?xml version="1.0" encoding="utf-8"?>
<!-- Generator: Adobe Illustrator 21.0.0, SVG Export Plug-In . SVG Version: 6.00 Build 0)  -->
<svg version="1.1" id="Layer_1" xmlns="http://www.w3.org/2000/svg" xmlns:xlink="http://www.w3.org/1999/xlink" x="0px" y="0px"
	 viewBox="0 0 173.9 80" style="enable-background:new 0 0 173.9 80;" xml:space="preserve">
<style type="text/css">
	.st0{fill:#27AAE1;}
	.st1{fill:#9ACA3C;}
	.st2{fill:#F9A241;}
	.st3{fill:#FFFFFF;}
	.st4{fill:#E6E7E8;}
</style>
<g>
	<g>
		<path class="st0" d="M41.3,59.7L38,78.4H13l-0.3-1.7c2.1-5.4,5.9-9.9,10.8-13c2.2-1.4,4.7-2.5,7.3-3.2c2.3-0.6,4.7-1,7.2-1
			C39.1,59.5,40.2,59.6,41.3,59.7z"/>
		<path class="st1" d="M30.8,60.5c-2.6,0.7-5,1.8-7.3,3.2c-4.8,3.1-8.6,7.6-10.8,13L6.7,42.4c7.7,0.4,14.5,4,19.1,9.5
			C28,54.4,29.6,57.3,30.8,60.5z"/>
		<path class="st2" d="M45.5,36.2l-4.1,23.5c-1.1-0.1-2.2-0.2-3.3-0.2c-2.5,0-4.9,0.3-7.2,1c-1.1-3.2-2.8-6.1-5-8.6
			C29.3,43.8,36.6,37.9,45.5,36.2z"/>
		<g>
			<path class="st3" d="M46,35h-1.7v0c-8.1,1.8-15,7.1-18.9,14.5c-4.7-4.8-11-7.8-17.7-8.4L6.7,35H5.1c-0.4,0-0.7,0-1.1-0.1l1.5,8.7
				l1.1,0.1c7,0.4,13.6,3.7,18.2,9l1.4,1.6l0.9-1.9c3.4-7.7,10.4-13.3,18.7-14.9l0.9-0.2l0.4-2.4C46.7,35,46.3,35,46,35z"/>
			<path class="st3" d="M51,28.4V30c0,2.4-1.7,4.5-4,4.9C46.7,35,46.3,35,46,35H5.1c-0.4,0-0.7,0-1.1-0.1c-2.3-0.5-4-2.5-4-4.9v-1.6
				H51z"/>
			<path class="st3" d="M45.5,25.1H5.5v0c0-3.7,3-6.7,6.7-6.7h26.6C42.5,18.4,45.5,21.4,45.5,25.1L45.5,25.1z"/>
			<path class="st3" d="M30.6,15.1h5.3c0.8-1.1,1.9-2.7,3.5-4.9c0.3-0.5,0.8-0.9,1.3-1.1l6.9-3.4c2.1-1,3-3.6,2-5.7v0L38.8,5.2
				c-1.2,0.6-2.2,1.4-2.9,2.5C31.8,13.6,30.8,14.8,30.6,15.1L30.6,15.1z"/>
			<path class="st3" d="M39.1,79.7H11.9l-0.6-3.2l0.1-0.3c2.2-5.6,6.2-10.4,11.3-13.7c2.4-1.5,4.9-2.6,7.6-3.4c2.5-0.7,5-1,7.6-1
				c1.2,0,2.3,0.1,3.5,0.2l1.4,0.2L39.1,79.7z M14.1,77.1h22.8l2.9-16.2c-0.6,0-1.2-0.1-1.7-0.1c-2.3,0-4.7,0.3-6.9,0.9
				c-2.4,0.7-4.8,1.7-6.9,3.1c-4.5,2.9-8.1,7.1-10.1,12L14.1,77.1z"/>
			<path class="st3" d="M12.7,78c0,0-0.1,0-0.1,0c-0.6-0.1-1.1-0.5-1.2-1.1L5.4,42.6c-0.1-0.4,0-0.8,0.3-1.1C5.9,41.2,6.3,41,6.7,41
				c7.7,0.4,15,4.1,20.1,10c2.3,2.7,4,5.7,5.2,9c0.1,0.3,0.1,0.7-0.1,1.1c-0.2,0.3-0.5,0.6-0.8,0.7c-2.4,0.7-4.8,1.7-6.9,3.1
				C19.6,67.7,16,72.1,14,77.2C13.8,77.7,13.3,78,12.7,78z M8.3,43.8l5,28.6c2.3-4,5.6-7.4,9.5-9.9c2-1.2,4-2.2,6.2-3
				c-1-2.5-2.5-4.8-4.2-6.9C20.6,47.8,14.6,44.6,8.3,43.8z"/>
			<path class="st3" d="M29.9,62.1l-0.4-1.2c-1.1-3-2.6-5.8-4.7-8.2l-0.5-0.6l0.3-0.8c3.8-8.5,11.5-14.7,20.6-16.5l1.9-0.4
				l-4.7,26.7L41.2,61c-1-0.1-2.1-0.2-3.1-0.2c-2.3,0-4.7,0.3-6.9,0.9L29.9,62.1z M27.4,51.7c1.8,2.2,3.2,4.6,4.2,7.2
				c2.1-0.5,4.3-0.7,6.4-0.7c0.7,0,1.5,0,2.2,0.1l3.6-20.3C36.6,39.9,30.6,44.9,27.4,51.7z"/>
			<line class="st3" x1="31.7" y1="14.2" x2="31.7" y2="14.2"/>
		</g>
	</g>
	<g>
		<path class="st3" d="M69.1,29.4v2h-2.7v21h1.1c2.6,0,4.3-0.2,5.4-0.7c1-0.5,2-1.8,3-4l1.5,0.5l-2.6,7.7h-1.7l0.5-1.5H58.9v-2h2.3
			v-21h-2.3v-2H69.1z"/>
		<path class="st3" d="M82,37l0.4,1.1l0.7,1.5c0.8-0.8,1.5-1.5,2.2-1.9c0.7-0.4,1.3-0.5,1.9-0.5c0.4,0,0.8,0.1,1.3,0.2l1.3,0.3
			l0.5,0.1l1,0.1c0.3,0,0.6,0,0.9-0.1c0.3-0.1,0.6-0.3,1-0.6l1.2,1l-0.5,0.8l-0.5,0.8l-7,16.4c-0.4,0.9-0.7,1.7-1,2.3
			c-0.3,0.6-0.7,1.1-0.9,1.5c-0.5,0.6-1.2,1-1.9,1.2l-1.5,0.2c-0.7,0-1.4-0.1-2.3-0.4l0.8-4.1c0.5,0.2,1.1,0.4,1.7,0.4
			c0.5,0,1-0.1,1.5-0.2s0.8-0.4,1.1-0.7c0.3-0.3,0.5-0.6,0.6-1l0.4-0.9l-6.2-13.4l-1.5,0.8l-0.9-1.7L82,37z M88.9,41.2l-1.7-0.6
			c-0.7-0.2-1.2-0.4-1.6-0.4c-0.6,0-1.2,0.2-2,0.7l3.4,8l3.1-7.5l-0.6,0L88.9,41.2z"/>
		<path class="st3" d="M123.1,31.5l1.3-1.1l1.5,1.4l-6.2,5.6l-1.3-1.4c0.3-0.5,0.5-1,0.5-1.7c0-0.4-0.1-0.9-0.4-1.4
			c-0.2-0.5-0.7-0.9-1.2-1.3c-0.6-0.3-1.1-0.6-1.6-0.6l-1.2-0.1c-0.5,0-1,0-1.5,0.1s-0.9,0.3-1.5,0.5c-1,0.5-1.9,1.1-2.7,2
			c-0.8,0.9-1.3,2-1.8,3.4s-0.6,2.8-0.6,4.3c0,1,0.2,2.2,0.5,3.6c0.3,1.4,1,2.8,2.1,4.2c1.1,1.4,2.2,2.4,3.5,2.9
			c1.3,0.4,2.4,0.6,3.1,0.6c0.7,0,1.2-0.1,1.7-0.2c0.5-0.1,0.9-0.3,1.3-0.7c0.4-0.3,0.7-0.8,1-1.4s0.4-1.6,0.4-2.8v-0.7v-4.6h-5.3
			v-2.6h8.6h0.4c0.2,0,0.4,0,0.8-0.1c0.3,0,0.6-0.1,0.7-0.2l0.9,1.6c-0.5,0.5-0.9,1.1-1,1.6s-0.2,1.2-0.2,2V50v1.1
			c0,0.3,0.1,0.7,0.2,1.1c-1.7,0.9-3.5,1.6-5.5,2.1c-2,0.5-3.9,0.8-5.7,0.8c-1.2,0-2.3-0.1-3.3-0.3c-1-0.2-2.2-0.7-3.6-1.4
			c-1.4-0.7-2.6-2-3.8-3.8c-1.2-1.8-1.8-3.3-2-4.5s-0.2-2.1-0.2-2.7c0-1.7,0.4-3.5,1.1-5.3c0.4-0.9,0.8-1.7,1.3-2.5s1.2-1.5,1.9-2.2
			c1.4-1.3,2.9-2.3,4.6-2.9s3.4-0.9,5.2-0.9c0.7,0,1.3,0,1.6,0.1c0.3,0,0.7,0.1,1.3,0.2c0.9,0.2,1.7,0.5,2.5,0.9
			C121.2,30.3,122.1,30.8,123.1,31.5z"/>
		<path class="st3" d="M133.8,37.2l-0.1,1l0,0.6v14h1.9v1.7h-8.4v-1.7h1.9v-12l-1.9,0.5v-2L133.8,37.2z M130.5,30.3l0.5-0.1
			c0.7,0,1.3,0.2,1.8,0.7s0.8,1.1,0.8,1.9l-0.1,1.1c-0.1,0.5-0.5,1-1.5,1.4c-0.2,0.1-0.3,0.1-0.4,0.1c-0.1,0-0.3,0-0.6,0l-0.7-0.1
			c-0.2,0-0.6-0.2-1.1-0.5c-0.2-0.2-0.4-0.4-0.5-0.7s-0.2-0.7-0.2-1.2C128.5,31.6,129.2,30.7,130.5,30.3z"/>
		<path class="st3" d="M140.8,36.9l1.7,0.5l-0.3,0.9c1.5-0.9,3.2-1.4,5-1.4c0.7,0,1.3,0.1,1.8,0.2c0.5,0.1,1.1,0.5,1.8,1
			c0.7,0.5,1.2,1.2,1.4,2.2c0.3,0.9,0.4,2,0.4,3.1v9.3h2v1.7h-6.1c-0.2-0.5-0.4-1.1-0.5-1.7c-1.7,1.6-3.4,2.4-5.2,2.4l-1.3-0.1
			c-0.5-0.1-1.2-0.4-2-0.9s-1.4-1.2-1.9-2.1c-0.3-0.7-0.5-1.5-0.5-2.3c0-1.2,0.4-2.4,1.1-3.5c0.7-1.2,1.9-2,3.5-2.3s3.3-0.6,5.3-0.6
			h1.1c0-0.4,0-0.8-0.1-1.1c0-0.3-0.1-0.7-0.3-1.2c-0.2-0.7-0.6-1.1-1.2-1.3l-1.1-0.2c-0.8,0-1.6,0.3-2.4,0.8
			c-0.8,0.5-1.6,1.3-2.3,2.2l-1.6-0.5L140.8,36.9z M142.9,46.4c-0.6,0.6-1,1.4-1,2.4c0,0.3,0,0.6,0.1,1c0.1,0.4,0.3,0.7,0.6,1.1
			s0.7,0.7,1.1,0.9c0.3,0.1,0.7,0.2,1.1,0.2c0.7,0,1.3-0.2,1.8-0.6c0.7-0.5,1.2-1.3,1.4-2.4c0.2-1.1,0.3-2.3,0.3-3.8
			c-1.9,0-3.2,0.1-3.8,0.2S143.4,45.9,142.9,46.4z"/>
		<path class="st3" d="M161.6,37l0.4,1.1l0.7,1.5c0.8-0.8,1.5-1.5,2.2-1.9c0.7-0.4,1.3-0.5,1.9-0.5c0.4,0,0.8,0.1,1.3,0.2l1.3,0.3
			l0.5,0.1l1,0.1c0.3,0,0.6,0,0.9-0.1c0.3-0.1,0.6-0.3,1-0.6l1.2,1l-0.5,0.8l-0.5,0.8l-7,16.4c-0.4,0.9-0.7,1.7-1,2.3
			c-0.3,0.6-0.7,1.1-0.9,1.5c-0.5,0.6-1.2,1-1.9,1.2l-1.5,0.2c-0.7,0-1.4-0.1-2.3-0.4l0.8-4.1c0.5,0.2,1.1,0.4,1.7,0.4
			c0.5,0,1-0.1,1.5-0.2c0.5-0.1,0.8-0.4,1.1-0.7s0.5-0.6,0.6-1l0.4-0.9l-6.2-13.4l-1.5,0.8l-0.9-1.7L161.6,37z M168.5,41.2l-1.7-0.6
			c-0.7-0.2-1.2-0.4-1.6-0.4c-0.6,0-1.2,0.2-2,0.7l3.4,8l3.1-7.5l-0.6,0L168.5,41.2z"/>
	</g>
	<g>
		<g>
			<path class="st3" d="M65.9,64.5l-0.1-0.4h0.8l0.6,3.4h-0.8c-0.1-0.5-0.2-0.8-0.4-1.1c-0.1-0.3-0.3-0.5-0.6-0.6
				c-0.3-0.1-0.5-0.2-0.8-0.2l-0.9,0v9.8h1.3v0.9h-5v-0.9h1.3v-9.8l-0.8,0c-0.3,0-0.6,0.1-0.8,0.2c-0.3,0.1-0.5,0.3-0.6,0.5
				c-0.1,0.3-0.3,0.6-0.4,1.1h-0.8l0.6-3.4h0.8l-0.1,0.4H65.9z"/>
			<path class="st3" d="M72.2,68.1l0.4,0c0.6,0,1.3,0.1,2,0.4c0.7,0.2,1.3,0.6,1.7,1s0.7,0.9,0.8,1.4c0.1,0.3,0.2,0.5,0.2,0.7
				c0,0.2,0.1,0.5,0.1,0.7c0,0.3,0,0.6-0.1,0.8L77.1,74c-0.1,0.4-0.4,0.8-0.8,1.3c-0.4,0.4-1,0.8-1.6,1c-0.7,0.2-1.2,0.3-1.7,0.3
				c-0.6,0-1.1-0.1-1.7-0.2c-0.5-0.2-1-0.4-1.5-0.8c-0.5-0.4-0.8-0.9-1.1-1.6c-0.2-0.7-0.3-1.3-0.3-2c0.1-0.7,0.3-1.4,0.6-1.9
				c0.3-0.6,0.8-1,1.4-1.3C71.1,68.4,71.6,68.2,72.2,68.1z M70.6,71.1l0,0.3c0,0.7,0.1,1.4,0.4,2.1c0.2,0.7,0.5,1.2,0.8,1.5
				c0.3,0.2,0.6,0.4,0.8,0.4c0.2,0.1,0.5,0.1,0.6,0.1c0.3,0,0.5,0,0.7-0.1c0.4-0.2,0.6-0.4,0.8-0.7c0.2-0.3,0.3-0.6,0.3-0.8l0-0.6
				c0-0.7-0.1-1.4-0.3-2.1c-0.2-0.7-0.5-1.2-0.8-1.5c-0.3-0.3-0.6-0.4-0.8-0.5s-0.4-0.1-0.6-0.1c-0.3,0-0.6,0.1-0.9,0.2
				c-0.3,0.1-0.5,0.3-0.7,0.6C70.8,70.2,70.7,70.6,70.6,71.1z"/>
			<path class="st3" d="M95.8,65.5l0.6-0.5l0.7,0.7l-2.9,2.6l-0.6-0.6c0.2-0.2,0.2-0.5,0.2-0.8c0-0.2-0.1-0.4-0.2-0.6
				c-0.1-0.2-0.3-0.4-0.6-0.6s-0.5-0.3-0.7-0.3l-0.6,0c-0.3,0-0.5,0-0.7,0.1c-0.2,0-0.4,0.1-0.7,0.3c-0.5,0.2-0.9,0.5-1.3,0.9
				s-0.6,0.9-0.8,1.6c-0.2,0.7-0.3,1.3-0.3,2c0,0.5,0.1,1,0.2,1.7c0.2,0.6,0.5,1.3,1,2c0.5,0.7,1,1.1,1.6,1.3
				c0.6,0.2,1.1,0.3,1.5,0.3c0.3,0,0.6,0,0.8-0.1c0.2-0.1,0.4-0.2,0.6-0.3c0.2-0.1,0.3-0.4,0.5-0.7s0.2-0.7,0.2-1.3v-0.3v-2.2h-2.5
				v-1.2h4h0.2c0.1,0,0.2,0,0.4,0c0.2,0,0.3,0,0.3-0.1l0.4,0.8c-0.2,0.3-0.4,0.5-0.5,0.7s-0.1,0.6-0.1,0.9v2.5v0.5
				c0,0.1,0,0.3,0.1,0.5c-0.8,0.4-1.7,0.7-2.6,1c-0.9,0.3-1.8,0.4-2.7,0.4c-0.6,0-1.1-0.1-1.5-0.2c-0.5-0.1-1-0.3-1.7-0.7
				c-0.6-0.3-1.2-0.9-1.8-1.8s-0.8-1.5-0.9-2.1c-0.1-0.6-0.1-1-0.1-1.3c0-0.8,0.2-1.6,0.5-2.5c0.2-0.4,0.4-0.8,0.6-1.2
				s0.5-0.7,0.9-1c0.6-0.6,1.4-1.1,2.2-1.3c0.8-0.3,1.6-0.4,2.4-0.4c0.3,0,0.6,0,0.7,0s0.3,0.1,0.6,0.1c0.4,0.1,0.8,0.2,1.2,0.4
				C94.9,64.9,95.4,65.2,95.8,65.5z"/>
			<path class="st3" d="M103.2,68.2l-0.1,0.4l0,0.3v6.6h0.9v0.8h-3.9v-0.8h0.9v-5.6l-0.9,0.2v-0.9L103.2,68.2z M101.7,65l0.2,0
				c0.3,0,0.6,0.1,0.8,0.3c0.2,0.2,0.4,0.5,0.4,0.9l0,0.5c0,0.2-0.3,0.5-0.7,0.7c-0.1,0-0.2,0.1-0.2,0.1c-0.1,0-0.2,0-0.3,0l-0.3,0
				c-0.1,0-0.3-0.1-0.5-0.3c-0.1-0.1-0.2-0.2-0.3-0.3s-0.1-0.3-0.1-0.6C100.7,65.6,101.1,65.1,101.7,65z"/>
			<path class="st3" d="M108.9,68l0.8,0.2l-0.1,0.4c0.7-0.4,1.5-0.6,2.3-0.6c0.3,0,0.6,0,0.9,0.1c0.2,0.1,0.5,0.2,0.8,0.5
				s0.5,0.6,0.7,1c0.1,0.4,0.2,0.9,0.2,1.5v4.4h0.9v0.8h-2.8c-0.1-0.3-0.2-0.5-0.2-0.8c-0.8,0.7-1.6,1.1-2.4,1.1l-0.6,0
				c-0.3,0-0.6-0.2-0.9-0.4c-0.4-0.2-0.7-0.6-0.9-1c-0.2-0.3-0.2-0.7-0.2-1.1c0-0.6,0.2-1.1,0.5-1.7s0.9-0.9,1.6-1.1
				c0.7-0.2,1.6-0.3,2.5-0.3h0.5c0-0.4,0-0.8-0.1-1.1c0-0.3-0.1-0.7-0.3-1.2c-0.2-0.7-0.6-1.1-1.2-1.3l-1.1-0.2
				c-0.8,0-1.6,0.3-2.4,0.8c-0.8,0.5-1.6,1.3-2.3,2.2l-1.6-0.5L108.9,68z M109.8,72.5c-0.3,0.3-0.5,0.7-0.5,1.1c0,0.1,0,0.3,0.1,0.5
				c0,0.2,0.1,0.3,0.3,0.5c0.2,0.2,0.3,0.3,0.5,0.4c0.2,0.1,0.3,0.1,0.5,0.1c0.3,0,0.6-0.1,0.8-0.3c0.3-0.3,0.6-0.6,0.6-1.1
				c0.1-0.5,0.1-1.1,0.1-1.8c-0.9,0-1.5,0-1.8,0.1S110.1,72.3,109.8,72.5z"/>
			<path class="st3" d="M121,68.1l0.2,0.5l0.3,0.7c0.4-0.4,0.7-0.7,1-0.9c0.3-0.2,0.6-0.2,0.9-0.2c0.2,0,0.4,0,0.6,0.1l0.6,0.1
				l0.2,0l0.4,0c0.1,0,0.3,0,0.4-0.1s0.3-0.1,0.5-0.3l0.6,0.5l-0.2,0.4l-0.2,0.4l-3.3,7.7c-0.2,0.4-0.3,0.8-0.5,1.1
				s-0.3,0.5-0.4,0.7c-0.2,0.3-0.5,0.5-0.9,0.6l-0.7,0.1c-0.3,0-0.7-0.1-1.1-0.2l0.4-1.9c0.2,0.1,0.5,0.2,0.8,0.2
				c0.2,0,0.5,0,0.7-0.1s0.4-0.2,0.5-0.3c0.1-0.2,0.2-0.3,0.3-0.5l0.2-0.4l-2.9-6.3l-0.7,0.4l-0.4-0.8L121,68.1z M124.2,70.1
				l-0.8-0.3c-0.3-0.1-0.6-0.2-0.7-0.2c-0.3,0-0.6,0.1-1,0.3l1.6,3.7l1.4-3.5l-0.3,0L124.2,70.1z"/>
			<path class="st4" d="M129.1,73.9l0.3,0c0.3,0,0.5,0.1,0.8,0.3s0.4,0.5,0.4,0.9l0,0.3c0,0.1-0.1,0.3-0.2,0.4
				c-0.1,0.2-0.3,0.3-0.5,0.4c-0.2,0.1-0.4,0.1-0.5,0.1c-0.2,0-0.5-0.1-0.7-0.3c-0.3-0.2-0.4-0.5-0.4-0.9c0-0.3,0.1-0.6,0.2-0.8
				C128.5,74.1,128.8,74,129.1,73.9z"/>
			<path class="st4" d="M141.5,69.6l-1.7,1.7c-0.2-0.5-0.4-1-0.7-1.4c-0.3-0.4-0.6-0.7-0.9-0.8l-0.7-0.1c-0.2,0-0.4,0-0.6,0.1
				s-0.3,0.2-0.5,0.3c-0.3,0.2-0.4,0.6-0.6,1c-0.1,0.2-0.1,0.4-0.1,0.6c0,0.2-0.1,0.4-0.1,0.7c0,0.2,0,0.4,0,0.5
				c0.1,0.5,0.3,1,0.6,1.5c0.3,0.5,0.7,0.9,1.2,1.1c0.2,0.1,0.5,0.2,0.9,0.2c0.5,0,0.8-0.1,1.1-0.2l0.4-0.3l0.5-0.5l0.7,0.6
				c-0.5,0.6-1.1,1.1-1.7,1.4c-0.6,0.3-1.2,0.5-1.9,0.5c-0.2,0-0.6,0-1-0.1c-0.5-0.1-0.9-0.3-1.4-0.6c-0.5-0.4-0.9-0.8-1.1-1.5
				c-0.2-0.6-0.4-1.3-0.4-1.9c0-0.5,0.1-1,0.2-1.4c0.1-0.5,0.4-0.9,0.8-1.4s0.9-0.9,1.5-1.1c0.6-0.3,1.3-0.4,2-0.4h0.3l0.6,0.1
				c0.3,0,0.7,0.2,1.1,0.4S141,69.1,141.5,69.6z"/>
			<path class="st4" d="M148,68.1l0.4,0c0.6,0,1.3,0.1,2,0.4c0.7,0.2,1.3,0.6,1.7,1c0.4,0.5,0.7,0.9,0.8,1.4
				c0.1,0.3,0.2,0.5,0.2,0.7c0,0.2,0.1,0.5,0.1,0.7c0,0.3,0,0.6-0.1,0.8l-0.2,0.9c-0.1,0.4-0.4,0.8-0.8,1.3c-0.4,0.4-1,0.8-1.6,1
				c-0.7,0.2-1.2,0.3-1.7,0.3c-0.6,0-1.1-0.1-1.7-0.2c-0.5-0.2-1-0.4-1.5-0.8c-0.5-0.4-0.8-0.9-1.1-1.6c-0.2-0.7-0.3-1.3-0.3-2
				c0.1-0.7,0.3-1.4,0.6-1.9s0.8-1,1.4-1.3C146.8,68.4,147.4,68.2,148,68.1z M146.4,71.1l0,0.3c0,0.7,0.1,1.4,0.4,2.1
				c0.2,0.7,0.5,1.2,0.8,1.5c0.3,0.2,0.6,0.4,0.8,0.4c0.2,0.1,0.5,0.1,0.6,0.1c0.3,0,0.5,0,0.7-0.1c0.4-0.2,0.6-0.4,0.8-0.7
				c0.2-0.3,0.3-0.6,0.3-0.8l0-0.6c0-0.7-0.1-1.4-0.3-2.1c-0.2-0.7-0.5-1.2-0.8-1.5c-0.3-0.3-0.6-0.4-0.8-0.5
				c-0.2-0.1-0.4-0.1-0.6-0.1c-0.3,0-0.6,0.1-0.9,0.2c-0.3,0.1-0.5,0.3-0.7,0.6S146.4,70.6,146.4,71.1z"/>
			<path class="st4" d="M164,75.5h0.9v0.8H161v-0.8h0.9v-3.7v-0.4c0-0.4,0-0.7-0.1-1c-0.1-0.3-0.2-0.5-0.4-0.7
				c-0.2-0.2-0.5-0.3-0.8-0.3c-0.1,0-0.3,0-0.4,0.1c-0.2,0-0.3,0.1-0.5,0.2c-0.1,0.1-0.3,0.2-0.4,0.4v5.2h0.9v0.8h-3.9v-0.8h0.9
				v-5.6l-0.9,0.2v-0.9l3.1-1l-0.1,0.4l0,0.3v0.2l0,0c0.2-0.2,0.4-0.3,0.6-0.4c0.2-0.1,0.4-0.2,0.6-0.3c0.4-0.2,0.8-0.3,1.2-0.3
				c0.3,0,0.7,0.1,1,0.2c0.2,0.1,0.4,0.2,0.6,0.4c0.1,0.1,0.2,0.2,0.3,0.3s0.2,0.2,0.2,0.3c0.4-0.4,0.9-0.7,1.4-0.9
				c0.5-0.2,0.9-0.4,1.3-0.4l0.5,0c0.1,0,0.3,0.1,0.7,0.3c0.3,0.1,0.6,0.4,0.8,0.8c0.2,0.4,0.3,1.1,0.3,2v4.3h0.9v0.8h-3.9v-0.8h0.9
				v-3.7v-0.2c0-0.4,0-0.7-0.1-1c-0.1-0.3-0.2-0.5-0.4-0.7s-0.5-0.3-0.9-0.3c-0.1,0-0.3,0-0.6,0.1c-0.3,0.1-0.5,0.3-0.7,0.6V75.5z"
				/>
		</g>
	</g>
</g>
</svg>
